<?xml version="1.0" encoding="UTF-8"?>
<svg xmlns="http://www.w3.org/2000/svg" xmlns:xlink="http://www.w3.org/1999/xlink" width="96pt" height="96pt" viewBox="0 0 96 96" version="1.1">
<g id="surface11707724">
<path style=" stroke:none;fill-rule:nonzero;fill:rgb(100%,100%,100%);fill-opacity:1;" d="M 87.203125 0 L 8.796875 0 C 4 0 0 4 0 8.796875 L 0 87.203125 C 0 92 4 96 8.796875 96 L 48 96 L 48 56 L 36 56 L 36 44 L 48 44 L 48 32 C 48 22 52 16 64 16 L 76 16 L 76 28 L 70.796875 28 C 67.203125 28 64 31.203125 64 34.796875 L 64 44 L 80 44 L 78 56 L 64 56 L 64 96 L 87.203125 96 C 92 96 96 92 96 87.203125 L 96 8.796875 C 96 4 92 0 87.203125 0 Z M 87.203125 0 "/>
</g>
</svg>
