<svg xmlns="http://www.w3.org/2000/svg" xmlns:xlink="http://www.w3.org/1999/xlink" viewBox="0 0 66 47" fill="#fff" fill-rule="evenodd" stroke="#000" stroke-linecap="round" stroke-linejoin="round"><use xlink:href="#A" x=".5" y=".5"/><symbol id="A" overflow="visible"><path d="M49.487 3.872c-6.86.033-12.074 4.57-14.026 11.8C32.186 10.632 29.63 4.867 28.166 0l-7.22.034.1 19.138c.018 3.79-3.04 6.876-6.828 6.893s-6.875-3.04-6.893-6.83L7.224.1 0 .134l.1 19.14c.028 7.94 6.374 14.234 14.14 14.194s14.055-6.386 14.02-14.33l-.015-3.25c1.455 2.88 3.275 5.95 5.275 8.65l-4.415 21.144 7.4-.034 3.18-15.362c2.896 1.793 6.15 2.86 9.94 2.842 7.945-.045 14.415-6.573 14.375-14.9-.036-7.946-6.568-14.413-14.512-14.377zm.113 21.846c-2.888.013-5.782-1.236-8.138-3.213l.708-2.9v-.182c.528-3.074 2.126-8.316 7.542-8.34 3.984-.007 7.226 3.204 7.257 7.188-.163 4.153-3.577 7.42-7.37 7.437z" stroke="none" fill="#fff" fill-rule="nonzero"/></symbol></svg>